<svg width="177" height="79" viewBox="0 0 177 79" fill="none" xmlns="http://www.w3.org/2000/svg">
<path d="M3 73.2772L18.7923 34.1885H44.0709L42.3744 38.3875H22.201L16.8649 51.5952H35.1445L33.4481 55.7942H15.1685L8.10511 73.2772H3Z" fill="url(#paint0_linear_0_1281)"/>
<path d="M80.4893 53.7328C78.8237 57.8555 76.5815 61.4182 73.7626 64.4212C70.9438 67.4241 67.8056 69.7399 64.348 71.3686C60.8904 72.9973 57.3638 73.8116 53.7683 73.8116C50.1728 73.8116 47.3042 72.9973 45.1627 71.3686C43.0211 69.7399 41.7541 67.4241 41.3617 64.4212C40.9692 61.4182 41.6058 57.8555 43.2714 53.7328C44.937 49.6102 47.1792 46.0474 49.9981 43.0445C52.8169 40.0416 55.9552 37.7258 59.4128 36.0971C62.8703 34.4684 66.3969 33.6541 69.9924 33.6541C73.588 33.6541 76.4565 34.4684 78.5981 36.0971C80.7397 37.7258 82.0067 40.0416 82.3991 43.0445C82.7915 46.0474 82.1549 49.6102 80.4893 53.7328ZM75.5489 53.7328C76.9163 50.3482 77.4597 47.4916 77.1791 45.1631C76.9122 42.8346 75.9842 41.0723 74.3952 39.8762C72.8199 38.6801 70.756 38.0821 68.2035 38.0821C65.6509 38.0821 63.0969 38.6801 60.5414 39.8762C57.9997 41.0723 55.6478 42.8346 53.4856 45.1631C51.3372 47.4916 49.5793 50.3482 48.2118 53.7328C46.8444 57.1175 46.2942 59.9741 46.5611 62.3026C46.8417 64.6311 47.7696 66.3934 49.3449 67.5895C50.9339 68.7856 53.0047 69.3836 55.5573 69.3836C58.1098 69.3836 60.657 68.7856 63.1987 67.5895C65.7542 66.3934 68.1061 64.6311 70.2545 62.3026C72.4167 59.9741 74.1815 57.1175 75.5489 53.7328Z" fill="url(#paint1_linear_0_1281)"/>
<path d="M124.644 53.7328C122.979 57.8555 120.737 61.4182 117.918 64.4212C115.099 67.4241 111.961 69.7399 108.503 71.3686C105.045 72.9973 101.519 73.8116 97.9234 73.8116C94.3279 73.8116 91.4593 72.9973 89.3177 71.3686C87.1762 69.7399 85.9092 67.4241 85.5168 64.4212C85.1243 61.4182 85.7609 57.8555 87.4265 53.7328C89.0921 49.6102 91.3343 46.0474 94.1532 43.0445C96.972 40.0416 100.11 37.7258 103.568 36.0971C107.025 34.4684 110.552 33.6541 114.148 33.6541C117.743 33.6541 120.612 34.4684 122.753 36.0971C124.895 37.7258 126.162 40.0416 126.554 43.0445C126.947 46.0474 126.31 49.6102 124.644 53.7328ZM119.704 53.7328C121.071 50.3482 121.615 47.4916 121.334 45.1631C121.067 42.8346 120.139 41.0723 118.55 39.8762C116.975 38.6801 114.911 38.0821 112.359 38.0821C109.806 38.0821 107.252 38.6801 104.697 39.8762C102.155 41.0723 99.8028 42.8346 97.6407 45.1631C95.4923 47.4916 93.7344 50.3482 92.3669 53.7328C90.9995 57.1175 90.4492 59.9741 90.7161 62.3026C90.9968 64.6311 91.9247 66.3934 93.5 67.5895C95.089 68.7856 97.1598 69.3836 99.7124 69.3836C102.265 69.3836 104.812 68.7856 107.354 67.5895C109.909 66.3934 112.261 64.6311 114.41 62.3026C116.572 59.9741 118.337 57.1175 119.704 53.7328Z" fill="url(#paint2_linear_0_1281)"/>
<path d="M138.342 73.2772H125.332L141.125 34.1885H154.711C158.8 34.1885 161.984 34.971 164.261 36.5361C166.543 38.0884 167.871 40.3215 168.244 43.2354C168.623 46.1365 167.995 49.6102 166.36 53.6565C164.715 57.7282 162.517 61.2337 159.765 64.173C157.018 67.0996 153.83 69.3518 150.201 70.9296C146.577 72.4947 142.624 73.2772 138.342 73.2772ZM132.134 69.0782H139.709C143.195 69.0782 146.336 68.4547 149.131 67.2078C151.927 65.9608 154.352 64.1858 156.408 61.8827C158.464 59.5796 160.135 56.8375 161.42 53.6565C162.695 50.5009 163.236 47.7843 163.045 45.5066C162.859 43.2163 161.908 41.4603 160.192 40.2388C158.481 39.0046 155.979 38.3875 152.685 38.3875H144.533L132.134 69.0782Z" fill="url(#paint3_linear_0_1281)"/>
<path d="M75.5489 53.7328C76.9163 50.3482 77.4597 47.4916 77.1791 45.1631C76.9122 42.8346 75.9842 41.0723 74.3952 39.8762C72.8199 38.6801 70.756 38.0821 68.2035 38.0821C65.6509 38.0821 63.0969 38.6801 60.5414 39.8762C57.9997 41.0723 55.6478 42.8346 53.4856 45.1631C51.3372 47.4916 49.5793 50.3482 48.2118 53.7328C46.8444 57.1175 46.2942 59.9741 46.5611 62.3026C46.8417 64.6311 47.7696 66.3934 49.3449 67.5895C50.9339 68.7856 53.0047 69.3836 55.5573 69.3836C58.1098 69.3836 60.657 68.7856 63.1987 67.5895C65.7542 66.3934 68.1061 64.6311 70.2545 62.3026C72.4167 59.9741 74.1815 57.1175 75.5489 53.7328Z" fill="url(#paint4_linear_0_1281)"/>
<path d="M119.704 53.7328C121.071 50.3482 121.615 47.4916 121.334 45.1631C121.067 42.8346 120.139 41.0723 118.55 39.8762C116.975 38.6801 114.911 38.0821 112.359 38.0821C109.806 38.0821 107.252 38.6801 104.697 39.8762C102.155 41.0723 99.8028 42.8346 97.6407 45.1631C95.4923 47.4916 93.7344 50.3482 92.3669 53.7328C90.9995 57.1175 90.4492 59.9741 90.7161 62.3026C90.9968 64.6311 91.9247 66.3934 93.5 67.5895C95.089 68.7856 97.1598 69.3836 99.7124 69.3836C102.265 69.3836 104.812 68.7856 107.354 67.5895C109.909 66.3934 112.261 64.6311 114.41 62.3026C116.572 59.9741 118.337 57.1175 119.704 53.7328Z" fill="url(#paint5_linear_0_1281)"/>
<path d="M3 73.2772L18.7923 34.1885H44.0709L42.3744 38.3875H22.201L16.8649 51.5952H35.1445L33.4481 55.7942H15.1685L8.10511 73.2772H3Z" stroke="#0C0800" stroke-width="3.08734" stroke-miterlimit="10"/>
<path d="M80.4893 53.7328C78.8237 57.8555 76.5815 61.4182 73.7626 64.4212C70.9438 67.4241 67.8056 69.7399 64.348 71.3686C60.8904 72.9973 57.3638 73.8116 53.7683 73.8116C50.1728 73.8116 47.3042 72.9973 45.1627 71.3686C43.0211 69.7399 41.7541 67.4241 41.3617 64.4212C40.9692 61.4182 41.6058 57.8555 43.2714 53.7328C44.937 49.6102 47.1792 46.0474 49.9981 43.0445C52.8169 40.0416 55.9552 37.7258 59.4128 36.0971C62.8703 34.4684 66.3969 33.6541 69.9924 33.6541C73.588 33.6541 76.4565 34.4684 78.5981 36.0971C80.7397 37.7258 82.0067 40.0416 82.3991 43.0445C82.7915 46.0474 82.1549 49.6102 80.4893 53.7328ZM75.5489 53.7328C76.9163 50.3482 77.4597 47.4916 77.1791 45.1631C76.9122 42.8346 75.9842 41.0723 74.3952 39.8762C72.8199 38.6801 70.756 38.0821 68.2035 38.0821C65.6509 38.0821 63.0969 38.6801 60.5414 39.8762C57.9997 41.0723 55.6478 42.8346 53.4856 45.1631C51.3372 47.4916 49.5793 50.3482 48.2118 53.7328C46.8444 57.1175 46.2942 59.9741 46.5611 62.3026C46.8417 64.6311 47.7696 66.3934 49.3449 67.5895C50.9339 68.7856 53.0047 69.3836 55.5573 69.3836C58.1098 69.3836 60.657 68.7856 63.1987 67.5895C65.7542 66.3934 68.1061 64.6311 70.2545 62.3026C72.4167 59.9741 74.1815 57.1175 75.5489 53.7328Z" stroke="#0C0800" stroke-width="3.08734" stroke-miterlimit="10"/>
<path d="M124.644 53.7328C122.979 57.8555 120.737 61.4182 117.918 64.4212C115.099 67.4241 111.961 69.7399 108.503 71.3686C105.045 72.9973 101.519 73.8116 97.9234 73.8116C94.3279 73.8116 91.4593 72.9973 89.3177 71.3686C87.1762 69.7399 85.9092 67.4241 85.5168 64.4212C85.1243 61.4182 85.7609 57.8555 87.4265 53.7328C89.0921 49.6102 91.3343 46.0474 94.1532 43.0445C96.972 40.0416 100.11 37.7258 103.568 36.0971C107.025 34.4684 110.552 33.6541 114.148 33.6541C117.743 33.6541 120.612 34.4684 122.753 36.0971C124.895 37.7258 126.162 40.0416 126.554 43.0445C126.947 46.0474 126.31 49.6102 124.644 53.7328ZM119.704 53.7328C121.071 50.3482 121.615 47.4916 121.334 45.1631C121.067 42.8346 120.139 41.0723 118.55 39.8762C116.975 38.6801 114.911 38.0821 112.359 38.0821C109.806 38.0821 107.252 38.6801 104.697 39.8762C102.155 41.0723 99.8028 42.8346 97.6407 45.1631C95.4923 47.4916 93.7344 50.3482 92.3669 53.7328C90.9995 57.1175 90.4492 59.9741 90.7161 62.3026C90.9968 64.6311 91.9247 66.3934 93.5 67.5895C95.089 68.7856 97.1598 69.3836 99.7124 69.3836C102.265 69.3836 104.812 68.7856 107.354 67.5895C109.909 66.3934 112.261 64.6311 114.41 62.3026C116.572 59.9741 118.337 57.1175 119.704 53.7328Z" stroke="#0C0800" stroke-width="3.08734" stroke-miterlimit="10"/>
<path d="M138.342 73.2772H125.332L141.125 34.1885H154.711C158.8 34.1885 161.984 34.971 164.261 36.5361C166.543 38.0884 167.871 40.3215 168.244 43.2354C168.623 46.1365 167.995 49.6102 166.36 53.6565C164.715 57.7282 162.517 61.2337 159.765 64.173C157.018 67.0996 153.83 69.3518 150.201 70.9296C146.577 72.4947 142.624 73.2772 138.342 73.2772ZM132.134 69.0782H139.709C143.195 69.0782 146.336 68.4547 149.131 67.2078C151.927 65.9608 154.352 64.1858 156.408 61.8827C158.464 59.5796 160.135 56.8375 161.42 53.6565C162.695 50.5009 163.236 47.7843 163.045 45.5066C162.859 43.2163 161.908 41.4603 160.192 40.2388C158.481 39.0046 155.979 38.3875 152.685 38.3875H144.533L132.134 69.0782Z" stroke="#0C0800" stroke-width="3.08734" stroke-miterlimit="10"/>
<path d="M75.5489 53.7328C76.9163 50.3482 77.4597 47.4916 77.1791 45.1631C76.9122 42.8346 75.9842 41.0723 74.3952 39.8762C72.8199 38.6801 70.756 38.0821 68.2035 38.0821C65.6509 38.0821 63.0969 38.6801 60.5414 39.8762C57.9997 41.0723 55.6478 42.8346 53.4856 45.1631C51.3372 47.4916 49.5793 50.3482 48.2118 53.7328C46.8444 57.1175 46.2942 59.9741 46.5611 62.3026C46.8417 64.6311 47.7696 66.3934 49.3449 67.5895C50.9339 68.7856 53.0047 69.3836 55.5573 69.3836C58.1098 69.3836 60.657 68.7856 63.1987 67.5895C65.7542 66.3934 68.1061 64.6311 70.2545 62.3026C72.4167 59.9741 74.1815 57.1175 75.5489 53.7328Z" stroke="#0C0800" stroke-width="3.08734" stroke-miterlimit="10"/>
<path d="M119.704 53.7328C121.071 50.3482 121.615 47.4916 121.334 45.1631C121.067 42.8346 120.139 41.0723 118.55 39.8762C116.975 38.6801 114.911 38.0821 112.359 38.0821C109.806 38.0821 107.252 38.6801 104.697 39.8762C102.155 41.0723 99.8028 42.8346 97.6407 45.1631C95.4923 47.4916 93.7344 50.3482 92.3669 53.7328C90.9995 57.1175 90.4492 59.9741 90.7161 62.3026C90.9968 64.6311 91.9247 66.3934 93.5 67.5895C95.089 68.7856 97.1598 69.3836 99.7124 69.3836C102.265 69.3836 104.812 68.7856 107.354 67.5895C109.909 66.3934 112.261 64.6311 114.41 62.3026C116.572 59.9741 118.337 57.1175 119.704 53.7328Z" stroke="#0C0800" stroke-width="3.08734" stroke-miterlimit="10"/>
<path d="M117.083 64.1444L147.742 76.415C149.711 77.2029 151.945 76.2456 152.733 74.2768L174.264 20.4801C175.052 18.5114 174.094 16.277 172.126 15.4891L141.467 3.21851C139.498 2.43061 137.264 3.38792 136.476 5.35667L114.945 59.1534C114.157 61.1221 115.114 63.3565 117.083 64.1444Z" fill="#0C0800" stroke="#0C0800" stroke-width="3.20803" stroke-miterlimit="10"/>
<path d="M126.612 45.1099L140.47 10.4864C140.778 9.71557 141.653 9.34066 142.424 9.64941L166.996 19.4841C167.766 19.7929 168.141 20.668 167.833 21.4388L153.975 56.0623C153.666 56.8332 152.791 57.2081 152.021 56.8993L127.449 47.0646C126.679 46.7559 126.305 45.8808 126.612 45.1099Z" fill="white" stroke="white" stroke-width="3.20803" stroke-miterlimit="10"/>
<path d="M125.007 14.7688C116.269 11.2713 106.349 15.5196 102.852 24.2586L134.497 36.9242C137.994 28.1851 133.746 18.2662 125.007 14.7688Z" fill="url(#paint6_linear_0_1281)" stroke="#0C0800" stroke-width="2.72677" stroke-miterlimit="10" stroke-linecap="round" stroke-linejoin="round"/>
<path d="M128.767 23.6934C130.088 25.633 130.84 27.9316 130.899 30.3023L128.767 23.6934Z" fill="white"/>
<path d="M128.767 23.6934C130.088 25.633 130.84 27.9316 130.899 30.3023" stroke="#0C0800" stroke-width="2.72677" stroke-miterlimit="10" stroke-linecap="round" stroke-linejoin="round"/>
<path d="M123.217 19.2361C124.386 19.7042 125.443 20.3327 126.373 21.0875L123.217 19.2361Z" fill="white"/>
<path d="M123.217 19.2361C124.386 19.7042 125.443 20.3327 126.373 21.0875" stroke="#0C0800" stroke-width="2.72677" stroke-miterlimit="10" stroke-linecap="round" stroke-linejoin="round"/>
<path d="M99.6854 22.9917L137.659 38.1903" stroke="#0C0800" stroke-width="2.72677" stroke-miterlimit="10" stroke-linecap="round" stroke-linejoin="round"/>
<path d="M125.004 14.7691L126.468 11.1113" stroke="#0C0800" stroke-width="2.72677" stroke-miterlimit="10" stroke-linecap="round" stroke-linejoin="round"/>
<path d="M80.1593 2L97.2846 8.85452" stroke="#0C0800" stroke-width="2.72677" stroke-miterlimit="10" stroke-linecap="round" stroke-linejoin="round"/>
<path d="M84.4778 9.56177L95.2748 13.8832" stroke="#0C0800" stroke-width="2.72677" stroke-miterlimit="10" stroke-linecap="round" stroke-linejoin="round"/>
<path d="M66.582 8.58667L93.1391 19.2163" stroke="#0C0800" stroke-width="2.72677" stroke-miterlimit="10" stroke-linecap="round" stroke-linejoin="round"/>
<path d="M139.68 60.9656C139.68 63.1509 137.908 64.9231 135.723 64.9231C133.537 64.9231 131.765 63.1509 131.765 60.9656C131.765 58.7803 133.537 57.0081 135.723 57.0081C137.908 57.0081 139.68 58.7793 139.68 60.9656Z" fill="white" stroke="#0C0800" stroke-width="2.72677" stroke-miterlimit="10" stroke-linecap="round" stroke-linejoin="round"/>
<ellipse cx="58.2654" cy="60.6137" rx="2.85028" ry="4.75046" transform="rotate(43.4753 58.2654 60.6137)" fill="#0C0800"/>
<ellipse cx="100.069" cy="60.6137" rx="2.85028" ry="4.75046" transform="rotate(43.4753 100.069 60.6137)" fill="#0C0800"/>
<defs>
<linearGradient id="paint0_linear_0_1281" x1="101.731" y1="20.2213" x2="101.731" y2="86.0107" gradientUnits="userSpaceOnUse">
<stop stop-color="#FFE14E"/>
<stop offset="1" stop-color="#FFB93F"/>
</linearGradient>
<linearGradient id="paint1_linear_0_1281" x1="101.731" y1="20.2213" x2="101.731" y2="86.0107" gradientUnits="userSpaceOnUse">
<stop stop-color="#FFE14E"/>
<stop offset="1" stop-color="#FFB93F"/>
</linearGradient>
<linearGradient id="paint2_linear_0_1281" x1="101.731" y1="20.2213" x2="101.731" y2="86.0107" gradientUnits="userSpaceOnUse">
<stop stop-color="#FFE14E"/>
<stop offset="1" stop-color="#FFB93F"/>
</linearGradient>
<linearGradient id="paint3_linear_0_1281" x1="101.731" y1="20.2213" x2="101.731" y2="86.0107" gradientUnits="userSpaceOnUse">
<stop stop-color="#FFE14E"/>
<stop offset="1" stop-color="#FFB93F"/>
</linearGradient>
<linearGradient id="paint4_linear_0_1281" x1="101.731" y1="20.2213" x2="101.731" y2="86.0107" gradientUnits="userSpaceOnUse">
<stop stop-color="#FFE14E"/>
<stop offset="1" stop-color="#FFB93F"/>
</linearGradient>
<linearGradient id="paint5_linear_0_1281" x1="101.731" y1="20.2213" x2="101.731" y2="86.0107" gradientUnits="userSpaceOnUse">
<stop stop-color="#FFE14E"/>
<stop offset="1" stop-color="#FFB93F"/>
</linearGradient>
<linearGradient id="paint6_linear_0_1281" x1="119.287" y1="13.5439" x2="119.287" y2="36.9242" gradientUnits="userSpaceOnUse">
<stop stop-color="#FFE14E"/>
<stop offset="1" stop-color="#FFB93F"/>
</linearGradient>
</defs>
</svg>
